<svg width="31" height="30" viewBox="0 0 31 30" fill="none" xmlns="http://www.w3.org/2000/svg">
<path d="M9.5 30C8.675 30 7.969 29.7065 7.382 29.1195C6.794 28.5315 6.5 27.825 6.5 27C6.5 26.175 6.794 25.4685 7.382 24.8805C7.969 24.2935 8.675 24 9.5 24C10.325 24 11.031 24.2935 11.618 24.8805C12.206 25.4685 12.5 26.175 12.5 27C12.5 27.825 12.206 28.5315 11.618 29.1195C11.031 29.7065 10.325 30 9.5 30ZM24.5 30C23.675 30 22.969 29.7065 22.382 29.1195C21.794 28.5315 21.5 27.825 21.5 27C21.5 26.175 21.794 25.4685 22.382 24.8805C22.969 24.2935 23.675 24 24.5 24C25.325 24 26.0315 24.2935 26.6195 24.8805C27.2065 25.4685 27.5 26.175 27.5 27C27.5 27.825 27.2065 28.5315 26.6195 29.1195C26.0315 29.7065 25.325 30 24.5 30ZM6.8 3H28.925C29.5 3 29.9375 3.256 30.2375 3.768C30.5375 4.281 30.55 4.8 30.275 5.325L24.95 14.925C24.675 15.425 24.306 15.8125 23.843 16.0875C23.381 16.3625 22.875 16.5 22.325 16.5H11.15L9.5 19.5H27.5V22.5H9.5C8.375 22.5 7.525 22.006 6.95 21.018C6.375 20.031 6.35 19.05 6.875 18.075L8.9 14.4L3.5 3H0.5V0H5.375L6.8 3Z" fill="white"/>
</svg>
