<svg width="190" height="180" viewBox="0 0 190 180" fill="none" xmlns="http://www.w3.org/2000/svg">
<path fill-rule="evenodd" clip-rule="evenodd" d="M40.2917 40.4167C51.2453 40.4167 60.125 31.537 60.125 20.5833C60.125 9.62969 51.2453 0.75 40.2917 0.75C29.338 0.75 20.4583 9.62969 20.4583 20.5833C20.4583 31.537 29.338 40.4167 40.2917 40.4167ZM65.0833 109.833L65.0833 179.25H45.25V119.75H35.3333V179.25H15.5V119.75V109.833H0.625L10.5417 50.3333H60.125H65.0833H84.9166H89.875H109.708H114.667H134.5L169.208 109.833H159.292L189.042 179.25H179.125L149.375 109.833H144.417L134.5 92.8333L134.5 119.75V179.25H114.667V119.75H104.75V179.25H84.9167L84.9166 109.833V70.1667H65.0833V109.833ZM109.708 40.4167C98.7548 40.4167 89.8751 31.537 89.8751 20.5833C89.8751 9.62969 98.7548 0.75 109.708 0.75C120.662 0.75 129.542 9.62969 129.542 20.5833C129.542 31.537 120.662 40.4167 109.708 40.4167Z" fill="black"/>
</svg>
